<svg width="256" height="256" viewBox="0 0 256 256" fill="none" xmlns="http://www.w3.org/2000/svg">
  <rect width="256" height="256" rx="36" fill="#F2ECDC"/>
  <path d="M58 48C66.837 48 74 55.163 74 64C74 55.163 81.163 48 90 48C98.837 48 106 55.163 106 64C106 55.163 113.163 48 122 48C130.837 48 138 55.163 138 64C138 55.163 145.163 48 154 48C162.837 48 170 55.163 170 64C170 55.163 177.163 48 186 48C194.837 48 202 55.163 202 64V192C202 200.837 194.837 208 186 208C177.163 208 170 200.837 170 192C170 200.837 162.837 208 154 208C145.163 208 138 200.837 138 192C138 200.837 130.837 208 122 208C113.163 208 106 200.837 106 192C106 200.837 98.837 208 90 208C81.163 208 74 200.837 74 192C74 200.837 66.837 208 58 208C49.163 208 42 200.837 42 192V64C42 55.163 49.163 48 58 48Z" fill="#222222"/>
</svg>
